<svg width="69" height="24" viewBox="0 0 69 24" fill="none" xmlns="http://www.w3.org/2000/svg">
<g id="Group">
<path id="Vector" d="M9.67573 12.9898C9.67573 9.60415 9.67573 6.22868 9.67573 2.84299C9.67573 2.28041 9.5309 1.77921 9.00331 1.46212C8.67228 1.26778 8.29986 1.22686 7.92745 1.23709C7.6378 1.23709 7.524 1.11434 7.56538 0.82794C7.57573 0.725654 7.6378 0.715424 7.72056 0.715424C8.64125 0.735882 9.57228 0.664282 10.493 0.75634C11.5688 0.858627 12.324 1.58486 12.4999 2.63841C12.6447 3.52831 12.5516 4.42844 12.5619 5.32856C12.5826 6.38211 12.5619 7.44589 12.5619 8.49945C12.5619 8.57105 12.5309 8.66311 12.6033 8.6938C12.6447 8.71425 12.7171 8.65288 12.7688 8.62219C13.4412 8.20282 14.1861 8.0187 14.9723 7.93687C16.4309 7.78344 17.8378 7.93687 19.1102 8.73471C20.2068 9.4098 20.9102 10.3815 21.3137 11.5885C21.5723 12.3557 21.6447 13.1535 21.6447 13.9616C21.6447 16.4471 21.6344 18.9327 21.6344 21.4183C21.6344 22.2468 21.9757 22.7378 22.6792 22.9628C22.9482 23.0446 23.2275 23.0344 23.4964 23.0344C23.5792 23.0344 23.6723 23.0344 23.693 23.1265C23.724 23.2594 23.7654 23.3924 23.7344 23.5254C23.724 23.5867 23.6413 23.5663 23.5792 23.5663C22.7723 23.5663 21.9757 23.5867 21.1688 23.5561C20.2585 23.5151 19.4723 23.1981 19.0378 22.3286C18.7895 21.8376 18.7585 21.2955 18.7585 20.7534C18.7585 18.4826 18.7585 16.2119 18.7585 13.9513C18.7585 13.2251 18.7171 12.5091 18.5206 11.8033C18.1999 10.6372 17.6206 9.64506 16.4309 9.17454C15.1171 8.65287 13.855 8.84723 12.655 9.53255C12.5516 9.59392 12.5309 9.68597 12.5309 9.79849C12.5309 11.8545 12.5309 13.9002 12.5309 15.9562C12.5309 18.4213 12.5309 20.8966 12.5309 23.3617C12.5309 23.5151 12.4895 23.5765 12.324 23.5765C11.4964 23.5765 10.6688 23.5765 9.84124 23.5765C9.64469 23.5765 9.6447 23.4742 9.6447 23.3413C9.6447 22.1343 9.6447 20.9171 9.6447 19.7101C9.6447 17.47 9.6447 15.2401 9.6447 13.0001L9.67573 12.9898Z" fill="white"/>
<path id="Vector_2" d="M55.4724 14.3708C55.4724 16.5188 55.4724 18.6668 55.4724 20.8149C55.4724 21.1013 55.4931 21.3774 55.5862 21.6434C55.7827 22.1855 56.1862 22.4719 56.7551 22.5435C56.8896 22.564 57.0344 22.5742 57.1689 22.5742C57.5517 22.5742 57.5517 22.5742 57.6034 22.9424C57.6138 23.055 57.5931 23.1163 57.4689 23.1061C56.4758 23.0652 55.4724 23.1982 54.4793 23.014C53.9206 22.9117 53.4448 22.656 53.1034 22.1855C53 22.0423 52.9275 22.0116 52.7827 22.1344C51.9655 22.7992 51.0034 23.0549 49.9689 23.0959C48.2931 23.147 46.7 22.8606 45.2413 21.9809C43.7827 21.091 42.8517 19.8125 42.3551 18.1963C41.8172 16.4575 41.7862 14.6879 42.1999 12.9183C42.7275 10.6373 44.031 8.92915 46.2655 8.02902C47.8793 7.38462 49.5551 7.22096 51.2724 7.60964C51.6862 7.7017 52.0689 7.8756 52.4206 8.11086C52.5758 8.21314 52.6793 8.23359 52.7827 8.08016C53.1862 7.47667 53.7655 7.32325 54.4586 7.41531C54.7172 7.44599 54.9758 7.43576 55.2344 7.41531C55.4207 7.40508 55.4724 7.46644 55.4724 7.65056C55.4724 8.97006 55.4724 10.2998 55.4724 11.6193C55.4724 12.5296 55.4724 13.4502 55.4724 14.3606V14.3708ZM52.6172 15.138C52.6172 15.138 52.6275 15.138 52.6379 15.138C52.6379 13.2456 52.6379 11.3533 52.6379 9.46104C52.6379 9.20532 52.5551 9.06212 52.3482 8.93938C51.8206 8.63252 51.2413 8.56092 50.6413 8.55069C49.2551 8.53023 48.0241 8.92915 47.0206 9.90087C45.9862 10.9135 45.5103 12.2126 45.2724 13.5934C45.0034 15.2096 45.0965 16.8052 45.6344 18.36C46.0172 19.4545 46.6068 20.3955 47.5689 21.0808C48.7068 21.8991 50 22.0832 51.3551 21.9196C51.7689 21.8684 52.162 21.7354 52.4931 21.4695C52.6172 21.3672 52.6896 21.2547 52.6586 21.0808C52.6068 20.733 52.6069 20.375 52.6069 20.0273C52.6069 18.3907 52.6069 16.7541 52.6069 15.1277L52.6172 15.138Z" fill="white"/>
<g id="Group_2">
<path id="Vector_3" d="M5.01023 15.9253C5.01023 17.7256 5.01023 19.5156 5.01023 21.3159C5.01023 21.5102 5.01023 21.7045 5.05161 21.8887C5.19644 22.574 5.64126 22.9422 6.34471 23.0138C6.46885 23.024 6.60333 23.0343 6.73782 23.0343C7.04816 23.0343 7.11023 23.0956 7.13092 23.4025C7.13092 23.515 7.11023 23.5662 6.98609 23.5662C5.99299 23.5253 4.98954 23.648 3.99643 23.4843C3.10678 23.3309 2.39298 22.6456 2.21712 21.7659C2.08264 21.142 2.13437 20.518 2.13437 19.8941C2.13437 16.6107 2.13437 13.3375 2.13437 10.0541C2.13437 9.78813 2.10333 9.52219 1.99988 9.2767C1.79298 8.7755 1.39988 8.51978 0.872294 8.44817C0.706777 8.42772 0.530917 8.42772 0.3654 8.42772C0.106779 8.42772 -0.0483937 8.21292 0.0136753 7.96743C0.0343649 7.89583 0.086088 7.8856 0.137812 7.8856C1.12057 7.92652 2.11368 7.80377 3.09644 7.96743C4.07919 8.13109 4.76195 8.81641 4.93781 9.78814C4.99988 10.1052 5.01023 10.4223 5.01023 10.7496C5.01023 11.6191 5.01023 12.4783 5.01023 13.3477C5.01023 14.2069 5.01023 15.0661 5.01023 15.9253Z" fill="white"/>
<path id="Vector_4" d="M5.52739 3.33415C5.52739 3.40575 5.47566 3.44667 5.44463 3.49781C4.86532 4.25473 4.28601 5.01165 3.7067 5.7788C3.58256 5.94246 3.52049 5.90155 3.42739 5.7788C2.85842 5.02188 2.28945 4.26496 1.71014 3.51827C1.60669 3.38529 1.60669 3.29324 1.71014 3.16026C2.28945 2.40334 2.87911 1.64642 3.44808 0.879274C3.56187 0.725844 3.61359 0.75653 3.7067 0.879274C4.28601 1.64642 4.86532 2.41358 5.45497 3.18073C5.48601 3.22164 5.52739 3.27278 5.52739 3.32393V3.33415Z" fill="white"/>
</g>
<path id="Vector_5" d="M24.7999 8.45842C24.8826 8.45842 24.893 8.53002 24.9137 8.60162C24.9551 8.81642 25.0068 9.04145 25.1102 9.2358C25.4102 9.75746 25.8654 9.93135 26.5275 9.78815C28.5137 9.35854 30.4999 8.91871 32.4964 8.47888C33.1378 8.33568 33.7896 8.25384 34.4516 8.32545C35.3102 8.40727 36.0758 8.68345 36.7378 9.20511C36.8723 9.3074 38.1758 10.5042 38.3102 11.6804C38.3827 12.3044 37.8861 12.6522 37.2447 11.7214C37.1723 11.6191 37.0896 11.5168 37.0068 11.4247C36.4275 10.8008 35.6413 10.586 34.7723 10.5348C34.1723 10.5041 33.593 10.5962 33.0137 10.719C31.193 11.1179 29.3827 11.5066 27.562 11.9055C27.1275 11.9975 26.693 12.0691 26.2585 11.9669C25.493 11.7725 25.0999 11.2202 24.9033 10.5144C24.7378 9.89043 24.6137 9.25625 24.4689 8.6323C24.4689 8.59139 24.4275 8.53002 24.4689 8.50956C24.5723 8.45842 24.6861 8.46865 24.7999 8.46865V8.45842Z" fill="white"/>
<path id="Vector_6" d="M38.0827 23.7197C37.9999 23.7197 37.9896 23.6379 37.9896 23.5663C37.9689 23.3515 37.9378 23.1264 37.8447 22.9219C37.5965 22.3797 37.1516 22.1547 36.4896 22.2468C34.4723 22.4923 32.4447 22.748 30.4275 23.0037C29.7758 23.0855 29.124 23.106 28.462 22.9832C27.4378 22.7889 26.5792 22.3184 25.9171 21.5205C25.3482 20.8352 25.0999 20.1806 24.9447 19.352C24.8102 18.636 25.8344 18.8508 26.0103 19.352C26.3516 20.3238 27.3758 20.6102 28.3585 20.7534C28.9482 20.8352 29.5378 20.7943 30.1275 20.7227C31.9689 20.4977 33.8206 20.2726 35.662 20.0374C36.0965 19.9862 36.5413 19.9555 36.9654 20.0987C37.7103 20.3647 38.0516 20.9477 38.1758 21.674C38.2896 22.3081 38.3413 22.9525 38.4241 23.5867C38.4241 23.6276 38.4551 23.6992 38.4034 23.7095C38.2999 23.7504 38.1861 23.7299 38.0723 23.7095L38.0827 23.7197Z" fill="white"/>
<path id="Vector_7" d="M35.5998 9.91089C35.5998 9.91089 29.9515 18.2984 25.1205 19.7202C25.1205 19.7202 26.3515 21.8375 27.0033 21.8478C29.1033 21.8478 37.286 12.8977 37.586 11.5168C37.9791 9.74723 35.5998 9.92112 35.5998 9.92112V9.91089Z" fill="white"/>
<path id="Vector_8" d="M60.0964 9.42008C60.0964 9.42008 59.9412 12.6626 60.0964 12.1409L61.6895 9.76785C61.6585 9.47122 61.586 9.17459 61.4412 8.90864C61.0585 8.22332 60.4067 7.99829 59.6723 7.99829C59.0205 7.99829 58.9688 8.02897 58.3171 8.05966C58.2757 8.05966 58.2033 8.05966 58.1929 8.10058C58.1723 8.21309 58.2136 8.31538 58.2447 8.41766C58.2654 8.49949 58.3481 8.48926 58.4102 8.48926C58.6378 8.47903 58.824 8.4688 59.0412 8.51995C59.6205 8.67338 60.0654 8.75521 60.0964 9.42008Z" fill="white"/>
<path id="Vector_9" d="M68.5998 9.66546C68.3929 8.70396 68.2998 8.6119 67.3998 8.15161C66.6136 7.75269 65.3515 7.69132 64.5239 7.86521C62.7343 8.2539 60.8826 10.3917 60.5929 11.1282L60.8825 13.7365L62.8688 13.2864C62.8688 13.2046 62.8377 13.583 62.8688 13.1227C62.9101 12.5602 62.8998 11.8339 63.6653 10.8622C64.9377 9.26654 66.8929 8.63236 68.2584 9.94163C68.3101 9.99277 68.2998 10.1258 68.4136 10.0848C68.517 10.0541 68.5894 9.97232 68.5894 9.84957C68.5894 9.7882 68.5894 9.7166 68.5791 9.65523L68.5998 9.66546Z" fill="white"/>
<path id="Vector_10" d="M64.6895 22.5741C64.3481 22.5741 64.0068 22.5741 63.6964 22.4105C63.1068 22.1241 62.9102 21.6024 62.8999 21.0091C62.8999 18.0428 62.8999 15.9971 62.8999 12.8569H61.2447V9.27686C60.893 10.0951 60.055 11.2612 60.0447 12.0795C60.0343 14.6571 60.0447 15.3527 60.0447 17.9405C60.0447 18.5645 60.0447 18.8611 60.0447 19.0043C60.0447 18.9839 60.0447 19.1373 60.0447 20.1602C60.0447 20.4466 60.0447 20.733 60.0757 21.0296C60.1688 22.0832 60.893 22.8605 61.9481 23.0447C62.9309 23.2083 63.924 23.0856 64.9068 23.1265C64.9688 23.1265 65.0205 23.1265 65.0412 23.0549C65.1033 22.8401 64.9171 22.5946 64.6895 22.5946V22.5741Z" fill="white"/>
</g>
</svg>
