<svg width="20" height="25" viewBox="0 0 20 25" fill="none" xmlns="http://www.w3.org/2000/svg">
<path d="M5.19989 10.0933V8.10079C5.19989 4.8032 6.01893 2.12329 10.1142 2.12329C14.2094 2.12329 15.0284 4.8032 15.0284 8.10079V10.0933" stroke="#C4C4C4" stroke-width="1.49438" stroke-linecap="round" stroke-linejoin="round"/>
<path d="M10.1138 18.5613C11.2447 18.5613 12.1614 17.4462 12.1614 16.0707C12.1614 14.6952 11.2447 13.5801 10.1138 13.5801C8.98297 13.5801 8.06622 14.6952 8.06622 16.0707C8.06622 17.4462 8.98297 18.5613 10.1138 18.5613Z" stroke="#C4C4C4" stroke-width="1.49438" stroke-linecap="round" stroke-linejoin="round"/>
<path d="M14.2089 22.048H6.01848C2.74231 22.048 1.92326 21.0518 1.92326 17.0668V15.0743C1.92326 11.0893 2.74231 10.093 6.01848 10.093H14.2089C17.4851 10.093 18.3041 11.0893 18.3041 15.0743V17.0668C18.3041 21.0518 17.4851 22.048 14.2089 22.048Z" stroke="#C4C4C4" stroke-width="1.49438" stroke-linecap="round" stroke-linejoin="round"/>
</svg>
