<svg width="25" height="24" viewBox="0 0 25 24" fill="none" xmlns="http://www.w3.org/2000/svg">
<path d="M14.1393 8.26172C14.7897 8.26172 15.4322 8.2929 16.0748 8.43321C16.349 8.49557 16.5214 8.62809 16.6546 8.86974C17.3599 10.1325 17.6655 11.5123 17.8379 12.931C17.8536 13.0791 17.7987 13.196 17.6968 13.313C16.7408 14.3107 15.6438 15.1058 14.4135 15.7294C14.0452 15.9165 13.7475 15.8542 13.4262 15.6749C12.4859 15.1526 11.6787 14.451 10.8246 13.7963C10.1507 13.2818 10.0253 12.7439 10.2682 11.9566C10.5974 10.8965 10.9108 9.83634 11.428 8.85416C11.5612 8.59692 11.7179 8.4488 12.0314 8.41762C12.7366 8.34746 13.434 8.26952 14.1393 8.26952V8.26172Z" fill="#78839D"/>
<path d="M4.57144 16.3998C4.53226 17.0156 4.49308 17.6314 4.46958 18.2472C4.46174 18.5045 4.35203 18.598 4.10128 18.5668C3.28633 18.4577 2.54191 18.1615 1.89151 17.6626C1.59374 17.4366 1.4762 17.0624 1.34299 16.7272C0.966855 15.7996 0.684761 14.8486 0.520204 13.8586C0.473187 13.5936 0.50453 13.3675 0.653415 13.1414C1.02171 12.588 1.43702 12.0735 1.93853 11.637C2.09525 11.4967 2.20495 11.4811 2.35384 11.6604C3.14528 12.5958 3.85053 13.5936 4.55577 14.5991C4.64197 14.7239 4.62629 14.8642 4.62629 15.0045C4.62629 15.4644 4.62629 15.9321 4.62629 16.392C4.61062 16.392 4.59495 16.392 4.58711 16.392L4.57144 16.3998Z" fill="#78839D"/>
<path d="M8.56002 0.871826C9.08503 0.871826 9.60222 0.903005 10.0959 1.11347C10.2918 1.19922 10.3937 1.26938 10.2134 1.50323C9.59438 2.32172 8.99101 3.1558 8.38763 3.98987C8.28576 4.13019 8.16822 4.22373 7.98799 4.2705C6.79691 4.57451 5.63717 4.97205 4.48527 5.40858C4.19534 5.51771 4.06996 5.46315 4.03078 5.16693C4.01511 5.07339 3.98377 4.97206 3.96809 4.87852C3.78003 4.02105 3.91324 3.3195 4.71252 2.75045C5.60583 2.12684 6.48346 1.50323 7.47864 1.04332C7.83127 0.887417 8.18389 0.871826 8.55219 0.871826H8.56002Z" fill="#78839D"/>
<path d="M8.15253 4.98764C8.33276 4.96426 8.40328 5.08119 8.48164 5.17473C9.21823 6.06338 9.95482 6.95201 10.6992 7.83286C10.8795 8.05112 10.8716 8.22262 10.7619 8.47206C10.378 9.32953 9.97049 10.1792 9.6884 11.0756C9.53951 11.5433 9.41414 12.0422 9.33577 12.5411C9.30443 12.7672 9.17905 12.8763 8.96748 12.9387C7.79991 13.2817 6.64017 13.6324 5.48043 13.991C5.26102 14.0612 5.11998 14.03 4.97109 13.8351C4.25018 12.8997 3.48224 12.0033 2.80834 11.0289C2.66729 10.8262 2.62811 10.6391 2.6908 10.4053C3.02775 9.09567 3.45873 7.82506 3.97591 6.57784C4.04643 6.40635 4.15614 6.26605 4.34421 6.19589C5.55879 5.74377 6.79689 5.35401 8.05066 5.01103C8.08984 5.00323 8.13686 4.99544 8.15253 4.98764ZM3.27066 10.491C3.24716 10.6937 3.34903 10.795 3.42739 10.9119C3.94457 11.7382 4.6028 12.4476 5.1905 13.2193C5.32371 13.3986 5.45693 13.422 5.66066 13.3596C6.60099 13.0634 7.54915 12.7828 8.49732 12.5021C8.71673 12.4398 8.8186 12.3151 8.86561 12.1046C9.15555 10.873 9.57085 9.67251 10.1037 8.52662C10.2134 8.29277 10.2056 8.12128 10.0332 7.91861C9.44548 7.24043 8.86561 6.54667 8.29358 5.8529C8.14469 5.67362 7.99581 5.62685 7.7764 5.697C6.76554 6.00101 5.74686 6.30502 4.75168 6.67139C4.56362 6.74155 4.46174 6.83509 4.39122 7.03777C4.12479 7.84846 3.8427 8.65914 3.53709 9.45425C3.40388 9.81282 3.34903 10.1792 3.26283 10.491H3.27066Z" fill="#78839D"/>
<path d="M12.4545 24C11.8747 23.9454 11.2399 23.8987 10.6131 23.8207C10.0645 23.7584 9.46899 23.1114 9.39847 22.5735C9.37496 22.402 9.45332 22.3474 9.60221 22.3162C10.856 22.0512 12.0941 21.7004 13.3243 21.3263C13.4811 21.2795 13.6299 21.3029 13.7788 21.3497C14.6643 21.6459 15.5419 21.9421 16.4274 22.2305C16.7095 22.3162 16.7173 22.4332 16.5371 22.6359C16.0199 23.1971 15.4479 23.6336 14.6565 23.7661C13.9434 23.8831 13.2303 23.9454 12.4624 24H12.4545Z" fill="#78839D"/>
<path d="M23.7149 11.2006C23.7227 11.2629 23.6522 11.3954 23.5817 11.5358C23.1585 12.362 22.6884 13.1571 22.179 13.9367C22.0145 14.1861 21.8656 14.2251 21.5913 14.116C20.7137 13.7652 19.8282 13.4378 18.9427 13.1104C18.739 13.0324 18.6293 12.9233 18.5901 12.6972C18.3472 11.2473 17.8927 9.8676 17.3285 8.51905C17.2423 8.32417 17.2658 8.18386 17.3834 8.02016C17.9711 7.17829 18.5431 6.32082 19.0368 5.42438C19.1386 5.22951 19.264 5.21392 19.4521 5.26848C20.4551 5.58029 21.3954 6.01682 22.3044 6.53909C22.3906 6.59366 22.4611 6.65601 22.5003 6.74955C23.0567 8.16047 23.5425 9.58698 23.7306 11.2006H23.7149ZM23.1194 10.9589C23.0802 10.2574 22.3436 7.68497 22.0223 7.12373C21.9518 7.0068 21.8499 6.93663 21.7402 6.88207C21.1212 6.54688 20.4786 6.25066 19.8204 5.99342C19.5461 5.88429 19.3972 5.92327 19.2405 6.1883C18.8801 6.79632 18.5039 7.38875 18.0886 7.9578C17.8849 8.23842 17.8849 8.51125 18.0103 8.78408C18.5274 9.89878 18.833 11.0836 19.076 12.2763C19.123 12.4868 19.2092 12.6193 19.4207 12.6972C20.0868 12.9389 20.745 13.1883 21.3954 13.4612C21.654 13.5703 21.8107 13.5079 21.9518 13.2741C22.3436 12.6505 22.6962 12.0191 23.0332 11.3643C23.1037 11.2317 23.135 11.0992 23.1115 10.9589H23.1194Z" fill="#78839D"/>
<path d="M22.2574 5.74387C21.2858 5.26057 20.3611 4.8864 19.4208 4.54341C19.2797 4.48885 19.1935 4.38751 19.0995 4.27838C18.3551 3.34297 17.5793 2.42314 16.7409 1.57347C16.5058 1.33962 16.5841 1.24608 16.8506 1.16033C17.1483 1.06679 17.4148 1.05121 17.7047 1.19152C19.3738 2.0178 20.7686 3.17148 21.944 4.59799C22.2104 4.91759 22.2026 5.29175 22.2574 5.75166V5.74387Z" fill="#78839D"/>
<path d="M24.1772 11.894C24.4045 12.1357 24.5142 12.3851 24.4985 12.7047C24.3731 14.7782 23.7306 16.688 22.61 18.4419C22.5552 18.5199 22.5003 18.6134 22.422 18.668C22.3123 18.746 22.179 18.746 22.0537 18.6992C21.9048 18.6524 21.9596 18.5121 21.9753 18.4108C22.1634 17.2727 22.2888 16.1346 22.3671 14.9809C22.3749 14.8484 22.422 14.7315 22.5003 14.6301C23.0724 13.8116 23.5504 12.9308 24.0362 12.0655C24.0675 12.011 24.1224 11.9642 24.1772 11.894Z" fill="#78839D"/>
<path d="M16.255 0.614635C15.9729 0.918645 15.6673 0.95762 15.3225 0.918644C13.9434 0.778332 12.5642 0.731558 11.1851 0.817304C10.6209 0.85628 10.2134 0.411957 9.67273 0.341801C11.8825 -0.196062 14.0609 -0.094721 16.255 0.614635Z" fill="#78839D"/>
<path d="M21.8264 19.5178C20.5491 21.0535 19.0525 22.2149 17.1718 23.0022C17.4147 22.5891 17.6498 22.3007 18.0103 22.0824C19.1465 21.3964 20.2044 20.6169 21.2152 19.7517C21.4816 19.5256 21.4816 19.5334 21.8264 19.5178Z" fill="#78839D"/>
<path d="M12.1489 7.52108C12.2664 7.37297 12.384 7.3184 12.5094 7.50549C12.3918 7.56785 12.2664 7.56785 12.1489 7.52108Z" fill="#78839D"/>
</svg>
