<svg width="33" height="27" viewBox="0 0 33 27" fill="none" xmlns="http://www.w3.org/2000/svg">
<path d="M31.3074 2.86876C30.8202 2.66581 30.2836 2.61246 29.766 2.71552C29.2483 2.81857 28.7731 3.07336 28.4008 3.44743L24.9528 6.89543L18.8381 0.780764C18.338 0.280841 17.6599 0 16.9528 0C16.2457 0 15.5675 0.280841 15.0674 0.780764L8.95276 6.89543L5.50476 3.44743C5.13182 3.07461 4.65672 2.82072 4.13951 2.71788C3.6223 2.61503 3.08621 2.66784 2.59901 2.86962C2.11181 3.07141 1.69538 3.41312 1.40235 3.85154C1.10933 4.28997 0.952871 4.80543 0.952759 5.33276V19.4474C0.954876 21.2149 1.65793 22.9094 2.90772 24.1591C4.1575 25.4089 5.85197 26.112 7.61943 26.1141H26.2861C28.0536 26.112 29.748 25.4089 30.9978 24.1591C32.2476 22.9094 32.9506 21.2149 32.9528 19.4474V5.33276C32.9529 4.80539 32.7966 4.28981 32.5038 3.85123C32.2109 3.41265 31.7946 3.07075 31.3074 2.86876Z" fill="#FFBF1A"/>
</svg>
