<svg width="19" height="22" viewBox="0 0 19 22" fill="none" xmlns="http://www.w3.org/2000/svg">
<path d="M11.8909 17.0149C12.3198 18.6153 11.37 20.2603 9.76962 20.6891C8.16922 21.118 6.52421 20.1682 6.09538 18.5678M8.39147 4.74097C8.69568 4.19367 8.79589 3.53217 8.62102 2.87957C8.26367 1.54591 6.89283 0.754452 5.55916 1.11181C4.2255 1.46916 3.43404 2.84 3.79139 4.17367C3.96626 4.82627 4.38379 5.34904 4.92089 5.67091M13.7359 8.44541C13.3789 7.11328 12.426 5.99931 11.0867 5.34858C9.74743 4.69785 8.13151 4.56365 6.59444 4.97551C5.05736 5.38737 3.72504 6.31155 2.89056 7.54473C2.05608 8.77792 1.7878 10.2191 2.14474 11.5512C2.73532 13.7553 2.62064 15.5137 2.24769 16.8498C1.82262 18.3727 1.61009 19.1341 1.66751 19.287C1.7332 19.4619 1.78072 19.5099 1.95495 19.5774C2.10724 19.6364 2.74701 19.465 4.02655 19.1222L15.8916 15.9429C17.1712 15.6001 17.8109 15.4287 17.9133 15.3014C18.0305 15.1558 18.0476 15.0905 18.017 14.9061C17.9903 14.745 17.4255 14.1919 16.296 13.0856C15.3049 12.1149 14.3264 10.6495 13.7359 8.44541Z" stroke="#78839D" stroke-width="1.5" stroke-linecap="round" stroke-linejoin="round"/>
</svg>
